<?xml version="1.0" encoding="UTF-8" standalone="no"?>
<svg
   version="1.2"
   width="48.104"
   height="48.104"
   id="svg2"
   sodipodi:docname="level.svg"
   inkscape:version="1.2.2 (732a01da63, 2022-12-09)"
   xmlns:inkscape="http://www.inkscape.org/namespaces/inkscape"
   xmlns:sodipodi="http://sodipodi.sourceforge.net/DTD/sodipodi-0.dtd"
   xmlns="http://www.w3.org/2000/svg"
   xmlns:svg="http://www.w3.org/2000/svg"
   xmlns:rdf="http://www.w3.org/1999/02/22-rdf-syntax-ns#"
   xmlns:cc="http://creativecommons.org/ns#"
   xmlns:dc="http://purl.org/dc/elements/1.1/">
  <sodipodi:namedview
     pagecolor="#ffffff"
     bordercolor="#666666"
     borderopacity="1"
     objecttolerance="10"
     gridtolerance="10"
     guidetolerance="10"
     inkscape:pageopacity="0"
     inkscape:pageshadow="2"
     inkscape:window-width="1920"
     inkscape:window-height="1017"
     id="namedview5601"
     showgrid="false"
     inkscape:zoom="16"
     inkscape:cx="17.4375"
     inkscape:cy="20.4375"
     inkscape:window-x="-8"
     inkscape:window-y="-8"
     inkscape:window-maximized="1"
     inkscape:current-layer="icons"
     inkscape:showpageshadow="2"
     inkscape:pagecheckerboard="0"
     inkscape:deskcolor="#d1d1d1" />
  <metadata
     id="metadata3123">
    <rdf:RDF>
      <cc:Work
         rdf:about="">
        <dc:format>image/svg+xml</dc:format>
        <dc:type
           rdf:resource="http://purl.org/dc/dcmitype/StillImage" />
      </cc:Work>
    </rdf:RDF>
  </metadata>
  <defs
     id="defs3121" />
  <g
     id="g3135">
    <path
       d="m 6.414,24.051 c 0,-9.741 7.896,-17.637 17.638,-17.637 9.742,0 17.638,7.896 17.638,17.637 0,9.74 -7.896,17.638 -17.638,17.638 -9.742,0 -17.638,-7.897 -17.638,-17.638"
       id="path3101"
       style="fill:#ffffff" />
    <path
       d="m 17.339,17.161 c 0,0.025 1.446,0 1.446,0 0,0 0.221,0 0.221,0.22 v 2.133 c 0,0 0.049,0.22 -0.221,0.22 -0.024,0 -2.084,0 -2.084,0 0,0 -0.196,0 -0.196,-0.194 0.024,-0.026 0.613,-2.233 0.613,-2.233 0,0 0,-0.146 0.221,-0.146"
       id="path3105"
       style="fill:#ffffff" />
    <g
       id="icons"
       transform="matrix(1.665499,0,0,1.665499,-199.6559,-13042.878)"
       style="fill:#000000;stroke:none">
      <path
         d="m 130,7857 h 8 v -16 h -8 z m 10,0 v -18 h -12 v 18 l 0.0659,-0.1179 L 124,7859 h 20 l -3.94801,-2 z"
         id="door-[#45]"
         sodipodi:nodetypes="cccccccccccccc"
         style="fill:#1a1a1a;stroke:none" />
      <rect
         style="fill:#deaa87;stroke:none;stroke-width:0.182653"
         id="rect1955"
         width="8.4596462"
         height="16.790136"
         x="129.78929"
         y="7840.7417"
         ry="0.4469206" />
      <rect
         style="fill:#1a1a1a;stroke:none;stroke-width:0.182653"
         id="rect2552"
         width="1.0655279"
         height="1.3238378"
         x="136.79594"
         y="7848.7173"
         ry="0.4469206" />
    </g>
  </g>
  <g
     inkscape:groupmode="layer"
     id="layer20"
     inkscape:label="Layer 1" />
</svg>
